<?xml version="1.0" standalone="no"?>
<!DOCTYPE svg PUBLIC "-//W3C//DTD SVG 20010904//EN"
 "http://www.w3.org/TR/2001/REC-SVG-20010904/DTD/svg10.dtd">
<svg version="1.0" xmlns="http://www.w3.org/2000/svg"
 width="733.000000pt" height="729.000000pt" viewBox="0 0 733.000000 729.000000"
 preserveAspectRatio="xMidYMid meet">

<g transform="translate(0.000000,729.000000) scale(0.100000,-0.100000)"
fill="#000000" stroke="none">
<path d="M3797 7139 c-50 -7 -179 -48 -287 -90 -68 -26 -199 -121 -279 -201
-124 -124 -189 -231 -250 -418 -66 -199 -65 -406 3 -607 63 -186 129 -296 246
-412 144 -141 273 -217 458 -269 89 -24 112 -27 267 -26 140 1 183 4 247 22
192 52 331 134 464 269 102 105 162 194 219 322 61 139 77 217 77 396 0 175
-9 232 -65 375 -78 202 -234 392 -404 492 -222 131 -461 182 -696 147z m373
-73 c76 -16 254 -94 319 -139 161 -110 320 -327 379 -517 40 -130 47 -297 21
-460 -17 -100 -26 -130 -78 -235 -67 -137 -68 -138 -176 -253 -95 -100 -171
-157 -286 -212 -211 -101 -545 -105 -777 -8 -110 46 -185 100 -304 218 -99 99
-110 115 -161 221 -93 192 -125 341 -113 515 30 437 353 797 789 880 87 16
293 11 387 -10z"/>
<path d="M3955 6646 c-27 -13 -77 -33 -110 -44 -64 -21 -260 -89 -285 -99 -8
-4 -31 -8 -50 -11 -19 -2 -60 -14 -90 -27 -30 -12 -89 -34 -130 -49 -107 -39
-120 -47 -137 -81 -20 -37 -20 -42 -22 -192 -1 -96 -4 -125 -17 -137 -11 -11
-16 -36 -16 -80 0 -77 4 -86 42 -86 20 0 35 -8 45 -24 9 -13 24 -27 33 -31 27
-11 236 -65 357 -92 159 -36 176 -40 220 -54 81 -24 148 -23 201 4 64 32 291
127 304 127 5 0 10 5 10 10 0 6 7 10 14 10 8 0 36 11 62 25 26 14 55 25 65 25
20 0 137 48 159 65 8 7 54 30 102 53 47 22 91 49 97 60 7 13 11 99 11 231 0
204 -1 211 -22 235 -31 34 -93 66 -127 66 -15 0 -41 4 -57 9 -64 20 -142 40
-204 52 -36 6 -105 22 -155 35 -123 33 -232 32 -300 0z m200 -11 c17 -2 48 -9
70 -15 22 -6 101 -23 175 -39 127 -27 230 -51 310 -72 20 -4 46 -18 58 -29 21
-20 22 -27 22 -235 l0 -214 -27 -19 c-16 -11 -46 -27 -68 -36 -22 -10 -49 -23
-60 -29 -83 -46 -201 -98 -240 -107 -25 -6 -85 -29 -133 -51 -48 -22 -96 -44
-107 -48 -11 -5 -45 -20 -75 -35 -30 -14 -57 -26 -60 -26 -3 0 -6 102 -8 226
-3 236 -6 256 -54 315 -21 25 -182 68 -448 120 -30 5 -68 14 -85 19 -16 5 -49
11 -73 15 -34 5 -41 10 -32 20 6 7 27 16 48 20 20 4 42 11 47 15 13 11 99 41
145 51 58 12 214 60 225 69 6 5 48 21 95 36 47 15 91 32 98 38 8 5 32 13 55
16 41 6 58 6 122 -5z m-800 -291 c141 -29 159 -32 200 -39 22 -4 49 -10 60
-15 11 -5 61 -16 110 -25 50 -10 95 -21 100 -26 6 -4 20 -6 30 -5 37 6 90 -30
110 -75 17 -37 20 -67 20 -261 0 -219 0 -220 -24 -239 -26 -21 -63 -24 -107
-9 -16 5 -69 19 -119 29 -49 11 -135 32 -190 47 -55 14 -130 32 -168 39 -37 8
-73 18 -80 22 -6 4 -21 9 -32 10 -29 5 -67 32 -59 44 3 5 14 7 25 4 10 -4 19
-2 19 2 0 5 23 18 52 29 29 10 55 20 59 22 3 1 4 -8 2 -21 -3 -14 0 -34 6 -45
10 -20 9 -20 -26 -15 -21 3 -46 10 -55 14 -22 12 -31 11 -23 -2 10 -15 49 -29
127 -45 64 -14 68 -14 88 6 11 11 28 20 38 20 10 0 27 7 38 15 10 8 31 15 45
15 40 0 119 30 127 49 5 9 6 50 3 91 -5 66 -9 75 -26 78 -20 3 -187 -47 -224
-68 -24 -13 -31 4 -31 75 0 30 -4 56 -9 59 -5 4 -30 -3 -56 -14 -41 -18 -162
-60 -172 -60 -8 0 -2 212 7 236 10 27 11 27 81 20 39 -3 78 -10 87 -15 10 -4
32 -11 50 -14 24 -5 32 -3 32 8 0 8 -3 14 -7 13 -5 0 -15 1 -23 4 -30 11 -137
28 -171 28 -67 -1 -74 -15 -77 -160 -3 -120 -5 -130 -23 -130 -17 0 -19 8 -19
103 0 112 15 171 50 199 27 22 53 22 155 2z m65 -327 c0 -61 -32 -85 -183
-138 -78 -27 -87 -23 -87 44 0 21 -4 36 -9 33 -10 -6 -7 -60 4 -88 4 -11 3
-18 -3 -18 -15 0 -26 63 -18 104 7 34 32 58 73 68 16 4 20 2 16 -8 -6 -15 6
-18 31 -8 21 8 20 24 -1 24 -22 0 -14 6 20 14 17 4 27 2 27 -4 0 -6 -4 -8 -10
-5 -5 3 -10 1 -10 -4 0 -14 23 -14 36 -1 9 9 71 27 102 29 8 1 12 -14 12 -42z
m230 -1 c0 -2 -9 -6 -20 -9 -11 -3 -18 -1 -14 4 5 9 34 13 34 5z m58 -63 l-3
-58 -57 -23 c-32 -12 -71 -25 -88 -28 -28 -6 -30 -5 -30 26 0 19 -7 41 -16 51
-15 16 -12 19 31 38 26 12 53 21 60 21 7 0 28 7 46 15 57 24 60 21 57 -42z
m-123 37 c-3 -5 -16 -10 -28 -10 -18 0 -19 2 -7 10 20 13 43 13 35 0z m-65
-20 c-8 -5 -22 -10 -30 -10 -13 0 -13 1 0 10 8 5 22 10 30 10 13 0 13 -1 0
-10z m-85 -42 c-22 -26 -26 -40 -23 -75 4 -51 -8 -57 -18 -9 -8 46 7 88 37
103 34 18 34 17 4 -19z m35 -17 c-5 -11 -10 -31 -10 -45 0 -20 5 -26 23 -27
l22 0 -22 -11 c-35 -17 -53 -4 -53 40 0 39 14 62 37 62 10 0 11 -5 3 -19z m40
-30 c0 -11 -4 -23 -10 -26 -6 -4 -10 5 -10 19 0 14 5 26 10 26 6 0 10 -9 10
-19z"/>
<path d="M4619 6431 c-20 -10 -82 -33 -138 -51 -92 -29 -120 -44 -109 -56 3
-2 22 3 44 10 21 8 62 21 89 30 28 8 73 25 100 37 28 13 53 22 58 21 4 -1 7 5
7 13 0 19 -7 18 -51 -4z"/>
<path d="M4276 6306 c-33 -12 -62 -29 -64 -36 -4 -10 2 -11 19 -6 13 4 34 10
47 13 12 3 22 9 22 13 0 4 14 10 30 14 17 3 30 10 30 16 0 15 -18 12 -84 -14z"/>
<path d="M4156 6251 c-10 -15 22 -20 34 -5 10 11 9 14 -8 14 -12 0 -23 -4 -26
-9z"/>
<path d="M4110 6230 c0 -5 4 -10 9 -10 6 0 13 5 16 10 3 6 -1 10 -9 10 -9 0
-16 -4 -16 -10z"/>
<path d="M3486 6282 c-11 -11 7 -22 35 -22 17 0 28 4 25 9 -7 10 -53 20 -60
13z"/>
<path d="M3560 6255 c0 -8 5 -15 10 -15 6 0 10 7 10 15 0 8 -4 15 -10 15 -5 0
-10 -7 -10 -15z"/>
<path d="M3593 6248 c2 -7 12 -13 23 -14 29 -1 40 9 18 17 -29 12 -46 10 -41
-3z"/>
<path d="M3698 6224 c24 -9 46 -13 49 -10 11 11 -4 18 -49 22 l-43 4 43 -16z"/>
<path d="M3765 6210 c3 -5 22 -12 43 -15 61 -10 112 -37 128 -66 11 -22 14
-73 14 -220 0 -171 -2 -193 -17 -205 -21 -15 -95 -18 -121 -5 -23 12 -192 51
-217 51 -18 -1 -18 -2 -3 -10 9 -6 29 -12 45 -14 15 -2 35 -6 43 -9 27 -11
134 -35 183 -42 36 -6 53 -3 73 10 l25 16 -3 219 -3 219 -28 29 c-18 18 -46
33 -78 40 -61 15 -92 15 -84 2z"/>
<path d="M3485 5769 c-6 -9 57 -23 77 -17 7 3 -7 9 -30 15 -23 6 -44 7 -47 2z"/>
<path d="M3164 5996 c-10 -8 -16 -17 -12 -21 7 -7 48 16 48 27 0 12 -14 9 -36
-6z"/>
<path d="M3206 5974 c-27 -26 -18 -84 13 -84 26 0 41 21 41 56 0 20 -6 34 -16
38 -21 8 -20 8 -38 -10z m34 -34 c0 -11 -4 -20 -10 -20 -5 0 -10 9 -10 20 0
11 5 20 10 20 6 0 10 -9 10 -20z"/>
<path d="M1270 6904 c-14 -2 -59 -9 -100 -15 -114 -17 -205 -44 -317 -93 -298
-130 -520 -353 -658 -663 -140 -311 -142 -695 -5 -1007 145 -331 374 -557 701
-692 387 -159 823 -112 1193 130 127 82 294 260 379 402 46 77 119 257 141
349 64 271 42 553 -64 808 -71 172 -154 291 -311 446 -150 148 -393 268 -640
316 -84 16 -272 28 -319 19z m390 -99 c120 -31 292 -109 401 -182 84 -58 232
-206 302 -305 54 -75 125 -222 155 -318 113 -369 43 -807 -176 -1099 -170
-226 -405 -384 -672 -453 -163 -42 -366 -50 -526 -19 -284 54 -521 190 -697
399 -307 366 -382 855 -195 1280 113 257 322 481 560 598 206 102 353 135 583
130 133 -3 178 -8 265 -31z"/>
<path d="M1265 6754 c-56 -5 -181 -34 -238 -55 -142 -52 -347 -215 -347 -276
0 -17 -10 -46 -23 -64 -30 -44 -74 -134 -88 -179 -38 -125 -41 -147 -38 -295
2 -97 -2 -160 -9 -178 -7 -16 -12 -32 -12 -37 0 -5 -13 -18 -29 -29 -34 -24
-74 -105 -91 -182 -16 -71 -2 -285 20 -314 4 -5 11 -25 15 -44 8 -38 56 -129
94 -180 27 -36 91 -81 115 -81 8 0 30 -16 50 -36 28 -28 41 -35 59 -29 12 4
35 9 50 12 16 3 35 16 44 29 9 15 25 24 41 24 25 0 81 15 112 30 41 19 41 92
1 295 -6 28 -18 91 -26 140 -9 50 -20 110 -25 135 -5 25 -14 81 -20 125 -7 44
-16 88 -21 97 -5 10 -9 24 -9 31 0 7 -11 24 -24 36 -25 24 -62 25 -152 6 -29
-6 -31 -4 -42 33 -18 58 -15 239 4 313 30 118 90 229 124 229 10 0 42 22 72
48 92 84 189 142 270 162 100 26 126 31 181 36 146 16 371 -68 501 -186 28
-26 64 -53 81 -61 39 -19 76 -77 107 -169 44 -130 52 -188 38 -282 -20 -139
-17 -131 -53 -124 -149 29 -173 17 -192 -99 -4 -22 -13 -76 -21 -120 -8 -44
-17 -96 -20 -115 -3 -19 -9 -44 -14 -55 -5 -11 -11 -38 -14 -60 -15 -115 -29
-192 -37 -207 -5 -10 -9 -30 -9 -44 0 -15 -5 -43 -11 -64 -9 -30 -8 -43 5 -68
16 -32 45 -45 131 -59 23 -4 47 -15 57 -28 10 -13 30 -25 45 -28 16 -3 38 -8
51 -12 18 -6 29 0 57 29 18 20 42 36 53 36 22 0 78 42 115 86 53 63 117 233
117 310 0 23 5 46 10 49 13 8 13 132 0 140 -5 3 -10 22 -10 41 0 45 -43 135
-81 171 -16 15 -29 35 -29 43 0 9 -5 21 -12 28 -8 8 -12 68 -13 194 -1 174 -2
187 -29 262 -29 80 -44 111 -90 185 -15 22 -26 52 -26 65 0 32 -94 134 -169
185 -109 74 -146 90 -326 141 -36 10 -213 19 -270 14z m305 -83 c141 -39 246
-97 342 -189 58 -55 68 -78 46 -100 -22 -22 -50 -13 -98 31 -67 60 -78 68
-151 109 -88 49 -137 65 -255 81 -106 15 -132 15 -236 -2 -128 -21 -224 -68
-361 -178 -77 -62 -110 -67 -115 -20 -3 22 6 37 41 70 69 65 148 119 222 152
22 9 49 21 60 26 111 49 365 59 505 20z m438 -353 c15 -20 69 -128 87 -178 20
-53 32 -293 18 -355 -7 -30 -9 -1 -9 110 1 148 -5 191 -40 272 -8 17 -14 35
-14 40 0 5 -15 35 -34 66 -19 31 -31 57 -26 57 4 0 12 -6 18 -12z m-1305 -15
c-4 -10 -15 -32 -26 -50 -10 -18 -32 -78 -48 -134 -31 -110 -39 -246 -18 -322
11 -41 4 -62 -11 -37 -15 24 -12 272 4 332 25 94 56 168 90 216 12 17 16 15 9
-5z m-49 -671 c3 -26 12 -83 20 -127 21 -120 46 -265 53 -310 3 -22 9 -44 13
-50 4 -5 11 -44 15 -85 4 -41 11 -82 15 -90 4 -8 10 -38 13 -67 6 -50 5 -52
-23 -61 -26 -9 -29 -8 -38 16 -6 15 -18 72 -27 127 -9 55 -23 132 -31 172 -8
40 -16 87 -19 105 -5 34 -20 120 -36 198 -22 108 -36 216 -30 222 11 11 46 15
57 6 6 -5 14 -30 18 -56z m186 39 c5 -11 10 -37 10 -59 0 -21 3 -42 6 -45 4
-4 8 -21 10 -39 1 -18 7 -53 12 -78 6 -25 17 -85 26 -135 9 -49 21 -112 26
-140 15 -83 40 -248 37 -250 -31 -16 -65 -25 -92 -25 -33 0 -35 2 -35 33 0 19
-3 37 -7 41 -5 4 -13 42 -20 84 -6 42 -16 100 -22 127 -19 94 -42 230 -54 317
-7 47 -15 90 -19 94 -5 4 -8 22 -8 39 0 37 24 53 82 54 27 1 40 -4 48 -18z
m1129 8 c31 -11 31 -12 25 -63 -3 -28 -8 -58 -12 -66 -3 -8 -12 -51 -19 -95
-17 -102 -29 -167 -43 -230 -5 -27 -17 -99 -26 -160 -8 -60 -20 -123 -26 -139
-10 -25 -15 -28 -47 -23 -20 3 -49 10 -65 16 -24 10 -27 15 -22 39 10 40 23
106 41 207 8 50 20 110 25 135 8 40 21 104 35 180 3 14 10 50 15 80 6 30 14
72 17 93 5 34 8 37 38 37 17 0 46 -5 64 -11z m167 -26 c-14 -99 -33 -199 -38
-213 -4 -8 -9 -33 -12 -55 -6 -42 -30 -176 -46 -260 -22 -113 -28 -143 -40
-210 -7 -38 -16 -74 -20 -78 -4 -4 -19 -3 -33 4 -30 14 -32 31 -16 114 5 28
16 88 24 135 8 47 18 108 24 135 20 104 42 231 48 270 3 22 9 45 13 50 4 6 11
37 15 70 4 33 9 63 12 68 2 4 20 7 40 7 35 0 35 0 29 -37z m104 -146 c7 -23
16 -58 22 -79 11 -36 7 -106 -11 -208 -19 -112 -67 -219 -124 -277 -79 -82
-83 -62 -31 152 9 39 23 111 30 160 7 50 18 115 24 145 6 30 16 88 22 129 l12
74 22 -27 c13 -14 28 -45 34 -69z m-1708 37 c4 -21 12 -61 18 -89 6 -27 17
-90 26 -140 8 -49 19 -110 24 -135 5 -25 15 -83 24 -130 8 -47 17 -100 21
-117 6 -25 4 -33 -7 -33 -46 0 -125 113 -164 235 -15 48 -19 90 -19 215 0 143
2 158 23 198 27 51 44 50 54 -4z"/>
<path d="M5995 6320 c-163 -26 -403 -152 -506 -266 -121 -134 -208 -298 -239
-451 -57 -285 8 -554 186 -769 132 -160 270 -251 469 -310 78 -23 109 -27 230
-27 151 -1 221 11 344 59 152 61 292 171 398 314 58 78 120 204 145 296 32
115 32 373 0 489 -53 189 -192 389 -348 501 -75 54 -227 127 -309 149 -72 19
-287 28 -370 15z m326 -75 c220 -45 428 -196 548 -400 60 -101 87 -173 106
-282 47 -272 -22 -513 -207 -724 -172 -194 -400 -289 -668 -276 -175 8 -343
67 -471 164 -133 100 -267 299 -311 460 -31 116 -31 326 1 443 42 158 150 326
277 433 115 98 299 178 444 194 25 3 46 7 48 8 9 8 157 -5 233 -20z"/>
<path d="M5967 6123 c-9 -9 -8 -133 2 -157 9 -24 -13 -72 -38 -86 -21 -11 -33
-38 -60 -137 -11 -40 -37 -107 -58 -150 -32 -65 -39 -89 -42 -154 -3 -87 14
-154 56 -216 14 -20 36 -80 50 -132 20 -80 29 -100 56 -123 l31 -26 1 -109 0
-108 155 0 155 0 0 114 c0 90 3 115 15 119 34 12 57 51 78 135 13 49 33 105
46 125 72 116 75 284 5 396 -16 27 -36 80 -44 117 -20 94 -39 137 -69 150 -30
14 -35 39 -28 146 4 66 2 87 -9 94 -16 10 -292 12 -302 2z m281 -75 l3 -48
-130 0 -131 0 0 50 0 51 128 -3 127 -3 3 -47z m-23 -93 c0 -6 -44 -11 -107
-13 -99 -2 -120 2 -101 22 11 11 208 2 208 -9z m15 -95 l0 -50 -125 0 -125 0
0 50 0 50 125 0 125 0 0 -50z m84 -79 c21 -72 21 -73 -14 -53 -28 16 -30 21
-30 77 0 51 2 57 14 45 8 -8 21 -39 30 -69z m-364 20 c0 -44 -4 -52 -30 -71
-16 -12 -30 -17 -30 -12 0 10 30 114 37 125 12 21 23 2 23 -42z m70 -25 c0 -2
-9 -6 -20 -9 -11 -3 -20 -1 -20 4 0 5 9 9 20 9 11 0 20 -2 20 -4z m210 -5 c0
-5 -9 -7 -20 -4 -11 3 -20 7 -20 9 0 2 9 4 20 4 11 0 20 -4 20 -9z m-18 -39
c180 -65 259 -253 186 -449 -22 -60 -86 -124 -156 -156 -66 -29 -198 -29 -263
0 -116 52 -181 158 -183 297 0 88 18 143 69 210 76 99 225 141 347 98z m-262
-684 c0 -81 -31 -47 -55 61 l-7 34 31 -22 c28 -20 31 -28 31 -73z m376 65 c-2
-10 -10 -37 -17 -61 -7 -23 -18 -47 -26 -53 -11 -9 -13 0 -13 48 0 52 3 61 23
71 32 15 39 14 33 -5z m-96 -33 c0 -5 -5 -10 -11 -10 -5 0 -7 5 -4 10 3 6 8
10 11 10 2 0 4 -4 4 -10z m8 -89 c2 -28 -1 -47 -10 -52 -16 -10 -102 -11 -187
-3 l-61 7 0 49 0 49 128 -3 127 -3 3 -44z m-75 -98 c-29 -2 -77 -2 -105 0 -29
2 -6 3 52 3 58 0 81 -1 53 -3z m71 -50 c4 -16 3 -61 -2 -85 -1 -5 -58 -8 -127
-8 l-125 0 0 48 c0 27 3 52 7 55 3 4 59 7 124 7 104 0 118 -2 123 -17z"/>
<path d="M6040 5721 c-84 -26 -148 -81 -192 -164 -19 -35 -23 -58 -23 -132 0
-78 4 -97 27 -140 57 -109 138 -158 263 -159 100 0 166 27 226 91 52 57 70
100 76 187 7 95 -21 171 -87 236 -73 74 -198 109 -290 81z m60 -60 c0 -22 4
-42 9 -45 17 -11 34 23 27 55 -6 30 -5 30 27 23 17 -3 42 -10 54 -15 l23 -8
-21 -35 c-15 -25 -17 -36 -8 -42 12 -7 42 21 52 49 3 7 19 -2 43 -26 42 -41
42 -40 -12 -73 -10 -6 -14 -15 -10 -23 6 -9 16 -7 42 8 37 22 39 21 52 -37
l10 -41 -37 -3 c-47 -4 -50 -32 -3 -36 28 -3 32 -7 32 -32 0 -16 -4 -40 -10
-54 l-9 -26 -35 21 c-25 15 -36 17 -42 8 -6 -11 9 -27 45 -48 10 -6 11 -13 2
-30 -16 -29 -63 -59 -69 -43 -2 6 -12 22 -22 34 -14 18 -21 20 -31 11 -9 -9
-7 -18 10 -42 24 -33 21 -38 -37 -47 -40 -6 -41 -6 -44 27 -4 45 -32 46 -36 2
-3 -27 -8 -33 -27 -33 -13 0 -35 4 -50 10 -25 10 -25 10 -9 41 23 45 2 64 -23
21 -10 -18 -22 -32 -26 -32 -11 0 -67 56 -67 67 0 5 14 17 30 26 17 10 30 22
30 28 0 14 -33 11 -57 -6 -20 -14 -22 -13 -32 17 -6 17 -11 43 -11 57 0 23 4
26 33 26 45 0 44 29 -2 33 -33 3 -33 4 -27 44 9 53 15 62 32 47 7 -6 20 -9 28
-6 20 8 120 -80 129 -114 16 -59 93 -76 118 -26 6 12 32 41 57 64 40 35 45 44
36 60 -17 28 -41 27 -84 -1 -58 -38 -83 -34 -150 24 -61 53 -80 59 -100 35 -9
-11 -16 -13 -24 -5 -7 7 0 21 26 46 l36 36 18 -31 c18 -31 44 -42 44 -18 0 7
-7 23 -16 36 -11 15 -13 26 -6 33 8 8 53 23 85 27 4 1 7 -17 7 -38z m114 -176
c-10 -8 -23 -14 -29 -14 -5 -1 1 8 15 19 14 10 27 17 29 14 3 -2 -4 -11 -15
-19z m-75 -39 c9 -11 10 -20 1 -35 -13 -25 -23 -26 -44 -5 -12 12 -13 20 -6
35 13 23 33 25 49 5z"/>
<path d="M1916 4082 c-3 -5 -10 -120 -16 -257 -12 -276 -14 -267 54 -263 36 3
40 6 51 44 7 23 15 68 19 100 4 33 17 95 29 139 l23 80 502 3 503 2 -16 -27
c-24 -44 -33 -58 -147 -224 -60 -86 -108 -159 -108 -162 0 -3 -30 -50 -67
-104 -37 -54 -148 -219 -247 -367 -100 -148 -186 -276 -192 -285 -7 -9 -68
-101 -138 -206 -69 -104 -164 -246 -211 -315 -48 -69 -89 -131 -92 -138 -3 -7
5 -39 17 -72 l22 -60 964 0 c1067 0 1026 -2 1135 65 32 19 61 35 66 35 4 0 31
-16 58 -36 103 -73 181 -94 277 -75 63 13 80 27 72 58 -5 18 -13 20 -74 19
-63 -1 -71 2 -121 37 -30 20 -69 50 -87 66 l-32 28 30 41 c56 78 93 181 105
300 7 60 8 62 36 62 30 0 64 -39 215 -246 34 -46 97 -129 140 -185 44 -55 87
-114 98 -130 18 -30 18 -30 107 -27 l89 3 2 977 3 977 21 10 c12 5 72 17 133
27 l112 18 -3 46 -3 45 -330 3 c-181 1 -340 0 -353 -3 -20 -5 -23 -11 -20 -48
l3 -42 123 -20 c67 -12 127 -26 132 -31 7 -7 9 -274 8 -757 l-3 -747 -73 98
c-41 53 -99 131 -130 173 -31 42 -99 131 -149 198 -51 67 -93 126 -93 130 0 5
-4 11 -9 13 -10 3 -221 279 -391 510 -41 56 -83 111 -92 122 -39 47 -128 167
-128 173 0 3 -7 13 -16 22 -8 9 -42 52 -75 96 -34 44 -69 88 -79 98 -18 16
-72 17 -834 17 -448 0 -817 -4 -820 -8z m1426 -1215 l3 -727 -563 0 -563 0 52
78 c29 42 74 109 101 147 26 39 78 115 114 170 36 55 84 127 107 160 90 133
347 519 347 522 0 2 29 43 63 91 35 48 70 99 77 112 7 14 16 27 19 30 9 7 61
88 61 95 0 3 23 36 50 75 28 39 50 74 50 80 0 5 6 13 13 17 7 4 24 26 38 48
l24 40 2 -105 c2 -58 4 -432 5 -833z m290 675 c29 -40 87 -118 130 -173 42
-55 84 -110 92 -122 9 -12 83 -112 165 -222 82 -110 163 -217 181 -238 18 -20
50 -62 71 -92 l38 -54 -117 -3 -117 -3 -3 -26 c-3 -25 0 -27 45 -33 86 -13 83
-9 83 -94 0 -82 -31 -183 -71 -231 l-20 -24 -17 23 c-9 12 -25 31 -34 41 -10
11 -18 22 -18 25 0 7 -148 207 -179 242 l-24 26 33 25 c45 35 118 133 135 182
53 149 -40 269 -207 269 -95 0 -149 -32 -192 -110 -26 -48 -28 -59 -24 -134 4
-73 9 -90 47 -162 l43 -81 -76 -75 -76 -75 0 631 1 631 29 -35 c16 -19 53 -68
82 -108z m221 -579 c27 -24 57 -91 57 -128 0 -41 -49 -134 -83 -159 l-29 -21
-21 29 c-54 72 -77 130 -77 192 0 61 9 83 45 103 26 15 82 7 108 -16z m8 -648
c5 -5 40 -48 79 -95 38 -47 70 -87 70 -91 0 -3 -20 -15 -45 -27 -89 -43 -221
-25 -292 41 -25 22 -63 114 -63 151 0 44 32 115 72 160 l40 46 65 -87 c37 -48
70 -92 74 -98z"/>
<path d="M6483 2663 c9 -2 23 -2 30 0 6 3 -1 5 -18 5 -16 0 -22 -2 -12 -5z"/>
<path d="M6478 2603 c12 -2 30 -2 40 0 9 3 -1 5 -23 4 -22 0 -30 -2 -17 -4z"/>
<path d="M6228 2143 c7 -3 16 -2 19 1 4 3 -2 6 -13 5 -11 0 -14 -3 -6 -6z"/>
<path d="M6543 1905 c0 -33 2 -45 4 -27 2 18 2 45 0 60 -2 15 -4 0 -4 -33z"/>
<path d="M6482 1900 c0 -14 2 -19 5 -12 2 6 2 18 0 25 -3 6 -5 1 -5 -13z"/>
<path d="M1660 1486 c-5 -7 -18 -34 -30 -61 -16 -38 -18 -50 -8 -57 20 -12 28
-10 61 18 27 22 37 25 75 20 82 -11 81 -17 -15 -86 -148 -107 -224 -172 -221
-188 2 -10 54 -33 143 -63 77 -27 146 -48 153 -49 13 0 62 98 62 126 0 28 -30
26 -65 -5 -20 -18 -47 -31 -62 -31 -30 0 -103 21 -103 29 0 3 44 38 97 76 136
98 215 165 210 178 -6 19 -286 106 -297 93z"/>
<path d="M5483 1420 c-24 -11 -43 -21 -43 -24 0 -18 15 -36 31 -36 15 0 19 -7
18 -32 -1 -18 -4 -44 -8 -57 -7 -24 -7 -24 -38 14 -21 25 -31 46 -28 59 11 46
-6 48 -116 11 -57 -18 -137 -43 -176 -55 -51 -15 -73 -26 -73 -37 0 -25 22
-93 31 -93 24 0 39 15 39 40 0 20 6 31 21 35 11 4 23 5 26 2 2 -3 -9 -50 -26
-104 -32 -101 -37 -138 -23 -147 5 -3 56 10 113 27 116 36 120 42 96 112 -19
56 -50 56 -57 0 -4 -32 -10 -41 -32 -49 -15 -5 -30 -8 -32 -5 -3 3 10 52 29
109 45 140 54 142 159 29 67 -73 76 -87 76 -121 0 -37 -1 -38 -35 -38 -41 0
-62 -28 -45 -59 23 -45 93 -31 119 24 9 18 19 94 25 191 8 106 16 167 25 178
17 20 7 46 -16 45 -10 0 -37 -9 -60 -19z"/>
<path d="M1984 1318 c-8 -25 -15 -33 -34 -33 -33 0 -42 -49 -12 -57 19 -5 19
-7 -4 -88 -30 -105 -30 -124 2 -149 37 -29 120 -30 129 -1 9 27 -1 40 -31 40
-34 0 -36 14 -15 95 l18 70 41 -3 c39 -3 42 -2 42 23 0 20 -7 28 -31 37 -29
10 -30 13 -24 46 7 39 -4 52 -46 52 -21 0 -28 -6 -35 -32z"/>
<path d="M4595 1317 c-29 -9 -41 -19 -43 -35 -3 -18 1 -22 22 -22 29 0 32 -7
68 -193 21 -113 22 -120 5 -132 -23 -17 -11 -45 19 -45 35 0 123 20 129 30 9
14 -5 38 -25 43 -19 5 -19 6 -73 257 -25 117 -27 119 -102 97z"/>
<path d="M2497 1242 c-29 -29 -46 -54 -42 -63 4 -10 -5 -18 -25 -26 -53 -20
-57 -91 -6 -101 20 -4 56 25 56 45 0 7 7 13 15 13 10 0 15 -10 15 -30 0 -28
-3 -30 -51 -36 -70 -9 -109 -43 -109 -94 0 -54 37 -83 100 -79 25 2 55 -2 68
-9 13 -7 37 -12 55 -10 24 2 33 8 35 26 2 15 -2 22 -14 22 -14 0 -16 7 -10 48
20 152 20 155 -9 185 -15 15 -35 27 -45 27 -35 0 -29 14 17 39 57 32 72 53 54
75 -23 28 -55 18 -104 -32z m-7 -291 c-15 -29 -52 -28 -48 1 4 28 51 56 56 33
2 -8 -2 -23 -8 -34z"/>
<path d="M4406 1268 c-24 -37 -47 -98 -44 -117 2 -9 -7 -30 -20 -45 -26 -34
-28 -59 -6 -80 30 -30 74 -10 74 34 0 23 5 30 19 30 17 0 31 -18 31 -39 0 -4
-22 -20 -50 -35 -57 -31 -80 -59 -80 -99 0 -62 77 -97 142 -63 16 9 42 12 65
9 28 -4 44 0 61 14 26 21 21 53 -8 53 -19 0 -30 19 -30 50 0 11 -5 42 -11 71
-15 69 -45 99 -100 99 l-42 0 42 45 c46 50 48 57 25 79 -22 23 -51 20 -68 -6z
m67 -310 c7 -26 -8 -48 -34 -48 -24 0 -25 27 -2 52 21 24 29 23 36 -4z"/>
<path d="M4875 1240 c-88 -36 -105 -176 -31 -254 42 -45 93 -54 150 -26 69 33
102 120 46 120 -13 0 -24 -9 -30 -24 -11 -30 -44 -49 -71 -41 -19 6 -56 52
-48 59 2 2 37 11 77 21 40 9 75 21 78 26 10 18 -17 78 -47 104 -32 26 -83 32
-124 15z m69 -67 c8 -20 6 -22 -33 -33 -27 -7 -31 -6 -31 10 0 42 50 60 64 23z"/>
<path d="M2147 1224 c-12 -12 -8 -36 8 -48 14 -10 14 -20 -2 -93 -15 -71 -20
-83 -41 -88 -17 -4 -22 -12 -20 -27 2 -18 16 -25 73 -39 50 -13 73 -15 82 -7
19 15 16 34 -7 49 -20 14 -20 15 -4 87 16 70 29 88 40 57 8 -20 40 -28 64 -15
14 7 20 21 20 43 0 42 -15 57 -60 57 -20 0 -40 4 -45 9 -13 12 -99 23 -108 15z"/>
<path d="M4205 1223 c-92 -8 -106 -13 -103 -35 2 -15 13 -24 35 -30 35 -9 36
-12 48 -128 l5 -55 -47 50 c-27 28 -73 79 -104 114 l-55 63 -62 -7 c-60 -7
-62 -8 -62 -36 0 -24 4 -29 24 -29 36 0 44 -18 56 -116 16 -143 14 -163 -15
-170 -18 -4 -25 -13 -25 -29 0 -13 4 -26 9 -29 13 -8 162 11 173 22 14 14 -9
52 -32 52 -27 0 -37 24 -45 110 l-7 75 112 -117 c104 -109 139 -134 155 -109
3 5 -2 71 -10 146 -21 188 -20 193 11 205 19 7 25 16 22 33 -3 24 -15 26 -83
20z"/>
<path d="M2715 1188 c-2 -7 -5 -24 -7 -38 -2 -14 -10 -25 -18 -26 -36 -2 -40
-5 -40 -29 0 -17 7 -26 23 -30 23 -6 23 -6 11 -93 -17 -125 -1 -152 90 -152
35 0 48 4 56 20 15 27 5 40 -31 40 -26 0 -29 3 -29 33 0 17 3 55 6 83 l7 52
49 -3 c27 -1 51 -4 52 -6 7 -8 66 -204 66 -219 0 -8 -9 -25 -18 -38 -16 -21
-20 -22 -31 -8 -28 34 -71 12 -71 -36 0 -30 23 -48 64 -48 40 0 85 54 159 193
37 70 77 132 88 137 10 6 19 21 19 34 0 21 -6 24 -57 29 -31 3 -60 4 -65 1
-14 -9 -9 -43 8 -52 14 -8 13 -14 -9 -57 l-24 -49 -18 54 c-16 49 -16 54 -1
62 45 25 -1 58 -82 58 -26 0 -64 3 -85 7 -38 6 -38 6 -32 43 6 33 4 38 -17 44
-36 9 -58 7 -63 -6z"/>
<path d="M3414 1180 c-27 -11 -54 -53 -54 -84 0 -14 7 -41 16 -59 16 -33 16
-35 -9 -59 -14 -14 -31 -43 -37 -65 -11 -34 -10 -46 5 -77 32 -67 124 -89 186
-45 l30 21 23 -21 c20 -18 33 -22 82 -19 54 3 59 5 59 26 0 19 -9 27 -38 37
-67 23 -70 29 -39 92 21 42 33 56 54 60 21 4 28 11 28 29 0 21 -5 23 -81 30
l-80 7 6 28 c7 32 -16 83 -44 99 -23 12 -77 12 -107 0z m81 -70 c6 -20 -10
-60 -24 -60 -12 0 -21 26 -21 56 0 30 36 34 45 4z m77 -120 c17 0 19 -4 13
-27 -10 -39 -12 -40 -45 -8 -35 33 -36 41 -12 68 17 19 17 19 20 -7 2 -18 9
-26 24 -26z m-98 -86 c31 -37 36 -48 25 -55 -31 -20 -63 -7 -77 30 -9 25 -5
71 7 71 4 0 24 -21 45 -46z"/>
</g>
</svg>
